# xmcd CD database file
#
# Track frame offsets:
#	150
#	22209
#	46187
#	80382
#	105917
#	125291
#	143427
#	175637
#	195724
#	234084
#
# Disc length: 4215 seconds
#
# Revision: 0
# Processed by: cddbd v1.5.2PL0 Copyright (c) Steve Scherf et al.
# Submitted via: CDex 1.51
#
DISCID=6d10750a
DTITLE=Mail,Wolf - Live Blues In Red Square 
DYEAR=2009
DGENRE=Blues
TTITLE0=Old Time Used To Be
TTITLE1=Honey Hush
TTITLE2=Coming To You ( The Return )
TTITLE3=Nov 27 Blues - Sky Is Crying
TTITLE4=Love Breaking Shuffle
TTITLE5=Blue Rose
TTITLE6=Hello
TTITLE7=So Fine
TTITLE8=We The People
TTITLE9=Live Blues In Red Square
EXTD=YEAR: 2009
EXTT0=
EXTT1=
EXTT2=
EXTT3=
EXTT4=
EXTT5=
EXTT6=
EXTT7=
EXTT8=
EXTT9=
PLAYORDER=
